<svg xmlns="http://www.w3.org/2000/svg" width="800" height="800" fill="#fff" viewBox="0 0 20 20"><path d="M15.5 3H11V.5a.5.5 0 0 0-.5-.5h-5a.5.5 0 0 0-.5.5V3H.5a.5.5 0 0 0-.5.5v12a.5.5 0 0 0 .5.5h15a.5.5 0 0 0 .5-.5v-12a.5.5 0 0 0-.5-.5ZM6 3V1h4v2a2 2 0 0 1-2 2 2 2 0 0 1-2-2Zm9 12H1V4h4.184A3 3 0 0 0 8 6a3 3 0 0 0 2.816-2H15ZM7.5 8a2 2 0 0 0-2-2 2 2 0 0 0-2 2 2 2 0 0 0 2 2 2 2 0 0 0 2-2Zm-2 1a1 1 0 0 1-1-1 1 1 0 0 1 1-1 1 1 0 0 1 1 1 1 1 0 0 1-1 1Zm1 1h-2A2.5 2.5 0 0 0 2 12.5 1.5 1.5 0 0 0 3.5 14h4A1.5 1.5 0 0 0 9 12.5 2.5 2.5 0 0 0 6.5 10Zm1 3h-4a.5.5 0 0 1-.5-.5A1.5 1.5 0 0 1 4.5 11h2A1.5 1.5 0 0 1 8 12.5a.5.5 0 0 1-.5.5Zm6-6a.5.5 0 0 1 .5.5.5.5 0 0 1-.5.5h-4a.5.5 0 0 1-.5-.5.5.5 0 0 1 .5-.5Zm.5 3.5a.5.5 0 0 1-.5.5h-3a.5.5 0 0 1-.5-.5.5.5 0 0 1 .5-.5h3a.5.5 0 0 1 .5.5Zm0 3a.5.5 0 0 1-.5.5h-3a.5.5 0 0 1-.5-.5.5.5 0 0 1 .5-.5h3a.5.5 0 0 1 .5.5Z" data-name="Path 192"/></svg>