<svg xmlns="http://www.w3.org/2000/svg" xml:space="preserve" width="800" height="800" fill="#fff" viewBox="0 0 20 20"><path d="M18.3 4.4C17.4 1.8 14.9 0 12 0 8.8 0 6.1 2.3 5.4 5.3L0 3v17.2l8 3.4 8-3 8 3.4V6.8l-5.7-2.4zM9 14.4c1.2 1.4 2.3 2.2 2.4 2.3l.7.6.6-.6c.3-.3.7-.7 1.1-1l1.2-1.2v4.3l-6 2.3v-6.7zM12 2c2.6 0 4.8 2.1 4.8 4.8 0 1.9-.8 3.4-1.8 4.7-.8 1-1.7 1.9-2.6 2.7l-.4.4c-1.8-1.6-4.8-5-4.8-7.8C7.2 4.1 9.4 2 12 2zM2 6l3.3 1.4c.2 1.5.9 3 1.7 4.4V21l-5-2.1V6zm20 15-5-2.1v-6.7c1-1.5 1.8-3.2 1.8-5.4L22 8.2V21z" class="st0"/><circle cx="12" cy="7" r="2" class="st0"/></svg>