<svg xmlns="http://www.w3.org/2000/svg" width="800" height="800" fill="#fff" viewBox="0 0 20 20"><path d="M8 11a1 1 0 0 1 1-1h6a1 1 0 0 1 0 2H9a1 1 0 0 1-1-1Zm13.832-1.445A1 1 0 0 1 21 10h-1v11a1 1 0 0 1-.293.707 60.628 60.628 0 0 1-.318.214A.99.99 0 0 1 19 22H5a1 1 0 0 1-1-1V10H3a1.054 1.054 0 0 1-.829-.441 1 1 0 0 1 .278-1.387L6 5.8V3a1 1 0 0 1 2 0v1.465l3.445-2.3A1 1 0 0 1 12 2a1 1 0 0 1 .555.168l8.249 5.5.75.5a1 1 0 0 1 .278 1.387ZM14 16h-4v4h4Zm4-7.8-6-4-6 4V20h2v-5a1 1 0 0 1 1-1h6a1 1 0 0 1 1 1v5h2Z"/></svg>